<?xml version="1.0" standalone="no"?>
<!DOCTYPE svg PUBLIC "-//W3C//DTD SVG 20010904//EN"
 "http://www.w3.org/TR/2001/REC-SVG-20010904/DTD/svg10.dtd">
<svg version="1.0" xmlns="http://www.w3.org/2000/svg"
 width="1667.000000pt" height="1667.000000pt" viewBox="0 0 1667.000000 1667.000000"
 preserveAspectRatio="xMidYMid meet">
<metadata>
Created by potrace 1.14, written by Peter Selinger 2001-2017
</metadata>
<g transform="translate(0.000000,1667.000000) scale(0.100000,-0.100000)"
fill="#000000" stroke="none">
<path d="M5590 8335 l0 -7787 1308 5 c719 3 1327 8 1352 10 25 3 92 9 150 12
57 4 107 8 110 10 3 2 39 6 80 9 41 3 86 8 100 11 14 2 43 7 65 10 511 71 955
236 1263 470 177 134 309 277 435 466 178 270 297 569 371 934 4 17 9 41 12
55 13 61 50 281 59 350 3 25 8 56 10 70 5 30 12 84 20 160 3 30 8 71 10 90 2
19 7 58 10 85 3 28 7 68 9 90 4 40 12 124 21 245 3 36 7 90 10 120 2 30 7 102
10 160 4 58 8 130 10 160 2 30 7 111 10 180 3 69 8 159 10 200 4 77 14 372 20
585 16 589 20 1106 20 2940 0 1822 -4 2395 -20 2900 -8 263 -16 487 -20 550
-2 39 -6 129 -9 200 -4 72 -9 162 -11 200 -3 39 -8 108 -10 155 -3 47 -7 108
-9 135 -3 28 -8 91 -11 140 -12 156 -18 231 -35 385 -5 47 -12 112 -15 145 -9
80 -13 121 -20 175 -4 25 -9 61 -11 80 -4 29 -22 154 -39 260 -23 152 -49 289
-90 480 -2 8 -13 53 -24 100 -12 47 -24 95 -26 107 -47 211 -209 644 -307 823
-14 25 -40 72 -58 105 -18 33 -62 105 -98 160 -59 90 -91 132 -182 245 -43 54
-187 193 -260 251 -233 187 -544 331 -895 415 -60 14 -121 28 -135 30 -14 2
-45 8 -70 14 -64 13 -214 35 -310 45 -30 3 -71 7 -90 10 -19 3 -71 7 -115 11
-44 3 -102 8 -130 11 -27 2 -596 7 -1262 9 l-1213 5 0 -7786z m2644 5475 c184
-26 289 -80 372 -193 70 -95 101 -197 128 -422 21 -175 31 -286 41 -460 4 -60
8 -132 10 -160 2 -27 7 -142 12 -255 9 -226 7 -8361 -2 -8505 -24 -380 -104
-629 -252 -786 -93 -98 -204 -151 -368 -174 -55 -8 -425 -8 -433 0 -4 3 -6
10866 -3 10959 1 18 9 19 213 12 116 -4 243 -11 282 -16z"/>
</g>
</svg>
